<svg xmlns="http://www.w3.org/2000/svg" width="1600" height="900" viewBox="0 0 1600 900">
  <defs>
    <linearGradient id="g" x1="0" y1="0" x2="1" y2="1">
      <stop offset="0" stop-color="#0f2742"/>
      <stop offset="1" stop-color="#0a1828"/>
    </linearGradient>
    <linearGradient id="line" x1="0" y1="0" x2="1" y2="0">
      <stop offset="0" stop-color="#38bdf8" stop-opacity="0"/>
      <stop offset="0.5" stop-color="#38bdf8" stop-opacity="0.7"/>
      <stop offset="1" stop-color="#38bdf8" stop-opacity="0"/>
    </linearGradient>
  </defs>
  <rect width="1600" height="900" fill="url(#g)"/>
  <g stroke="#1c3553" stroke-width="1" opacity="0.6">
    <path d="M0 150 H1600 M0 300 H1600 M0 450 H1600 M0 600 H1600 M0 750 H1600"/>
    <path d="M200 0 V900 M400 0 V900 M600 0 V900 M800 0 V900 M1000 0 V900 M1200 0 V900 M1400 0 V900"/>
  </g>
  <!-- circuito -->
  <g stroke="#2a6fb0" stroke-width="2" fill="none" opacity="0.55">
    <path d="M100 700 H400 V500 H700 V650 H1050 V400 H1450"/>
    <path d="M100 800 H300 V820 M300 800 V600 H520"/>
    <path d="M1500 200 H1150 V350 H850 V250 H520"/>
  </g>
  <g fill="#38bdf8">
    <circle cx="400" cy="500" r="6"/><circle cx="700" cy="650" r="6"/>
    <circle cx="1050" cy="400" r="6"/><circle cx="850" cy="250" r="6"/>
    <circle cx="520" cy="250" r="6"/><circle cx="300" cy="600" r="6"/>
  </g>
  <g fill="#f5b301" opacity="0.9">
    <circle cx="1450" cy="400" r="7"/><circle cx="100" cy="700" r="7"/>
  </g>
  <rect x="0" y="448" width="1600" height="4" fill="url(#line)"/>
</svg>
