<svg xmlns="http://www.w3.org/2000/svg" width="800" height="600" viewBox="0 0 800 600">
  <defs><linearGradient id="bg2" x1="0" y1="0" x2="1" y2="1"><stop offset="0" stop-color="#0f2742"/><stop offset="1" stop-color="#0a1828"/></linearGradient></defs>
  <rect width="800" height="600" fill="url(#bg2)"/>
  <!-- rack -->
  <rect x="280" y="70" width="240" height="460" rx="8" fill="#0a1828" stroke="#2a6fb0" stroke-width="3"/>
  <!-- patch panels -->
  <g>
    <rect x="300" y="95" width="200" height="46" rx="3" fill="#143861" stroke="#1c3553"/>
    <rect x="300" y="150" width="200" height="46" rx="3" fill="#143861" stroke="#1c3553"/>
    <rect x="300" y="205" width="200" height="60" rx="3" fill="#0f2742" stroke="#1c3553"/>
    <rect x="300" y="275" width="200" height="60" rx="3" fill="#0f2742" stroke="#1c3553"/>
    <rect x="300" y="345" width="200" height="46" rx="3" fill="#143861" stroke="#1c3553"/>
    <rect x="300" y="400" width="200" height="110" rx="3" fill="#0f2742" stroke="#1c3553"/>
  </g>
  <!-- ports -->
  <g fill="#38bdf8">
    <rect x="312" y="110" width="14" height="16" rx="1"/><rect x="332" y="110" width="14" height="16" rx="1"/><rect x="352" y="110" width="14" height="16" rx="1"/><rect x="372" y="110" width="14" height="16" rx="1"/><rect x="392" y="110" width="14" height="16" rx="1"/><rect x="412" y="110" width="14" height="16" rx="1"/><rect x="432" y="110" width="14" height="16" rx="1"/><rect x="452" y="110" width="14" height="16" rx="1"/><rect x="472" y="110" width="14" height="16" rx="1"/>
  </g>
  <g fill="#f5b301"><circle cx="320" cy="423" r="5"/><circle cx="340" cy="423" r="5"/><circle cx="360" cy="423" r="5"/><circle cx="380" cy="423" r="5"/></g>
  <!-- patch cords -->
  <g stroke-width="5" fill="none" opacity="0.9">
    <path d="M320 126 C 250 180, 250 240, 312 232" stroke="#2a9d8f"/>
    <path d="M360 126 C 560 180, 560 250, 488 232" stroke="#e63946"/>
    <path d="M400 126 C 280 200, 280 300, 312 302" stroke="#f5b301"/>
    <path d="M440 126 C 540 200, 540 300, 488 302" stroke="#4a90d9"/>
  </g>
</svg>
